<svg version="1.1" id="Layer_1"  x="0px" y="0px"
	 width="100%" viewBox="0 0 132 63" enable-background="new 0 0 132 63" xml:space="preserve">
<path fill="#2D2D2D" opacity="1.000000" stroke="none" 
	d="
M133.000000,25.000000 
	C133.000000,29.689257 133.000000,34.378513 132.662048,39.681496 
	C130.003143,51.555763 122.493690,58.586658 113.000000,64.000000 
	C82.645775,64.000000 52.291542,64.000000 21.321644,63.688522 
	C10.013095,58.585308 3.974390,50.031223 1.000000,39.000000 
	C1.000000,34.310745 1.000000,29.621489 1.361170,24.382511 
	C5.598071,12.758018 13.232716,5.350771 24.000000,1.000000 
	C52.354229,1.000000 80.708458,1.000000 109.765419,1.259758 
	C120.657562,5.458138 128.212677,11.944605 131.290146,22.853022 
	C131.519180,23.664860 132.414444,24.288740 133.000000,25.000000 
M19.734419,16.166418 
	C18.692362,17.239809 17.551695,18.234665 16.624172,19.399273 
	C10.370480,27.251469 10.348880,38.210926 16.306271,46.286003 
	C20.948408,52.578293 31.640182,57.650093 41.233742,53.786526 
	C49.857876,50.313366 55.114742,43.978985 55.826954,34.648926 
	C56.521912,25.544825 52.609028,18.411057 44.635857,13.909060 
	C36.238411,9.167499 28.048037,10.073440 19.734419,16.166418 
z"/>
<path fill="#E7E7E7" opacity="1.000000" stroke="none" 
	d="
M133.000000,24.531307 
	C132.414444,24.288740 131.519180,23.664860 131.290146,22.853022 
	C128.212677,11.944605 120.657562,5.458138 110.234077,1.259758 
	C117.594551,1.000000 125.189110,1.000000 133.000000,1.000000 
	C133.000000,8.686191 133.000000,16.374403 133.000000,24.531307 
z"/>
<path fill="#E6E6E6" opacity="1.000000" stroke="none" 
	d="
M23.531263,1.000000 
	C13.232716,5.350771 5.598071,12.758018 1.361170,23.916393 
	C1.000000,16.407045 1.000000,8.814090 1.000000,1.000000 
	C8.352704,1.000000 15.707616,1.000000 23.531263,1.000000 
z"/>
<path fill="#EDEDED" opacity="1.000000" stroke="none" 
	d="
M1.000000,39.468681 
	C3.974390,50.031223 10.013095,58.585308 20.852985,63.688522 
	C14.398855,64.000000 7.797710,64.000000 1.000000,64.000000 
	C1.000000,55.979931 1.000000,47.958645 1.000000,39.468681 
z"/>
<path fill="#EDEDED" opacity="1.000000" stroke="none" 
	d="
M113.469040,64.000000 
	C122.493690,58.586658 130.003143,51.555763 132.662048,40.147610 
	C133.000000,47.919434 133.000000,55.838863 133.000000,64.000000 
	C126.648064,64.000000 120.293076,64.000000 113.469040,64.000000 
z"/>
<path fill="#FCFCFC" opacity="1.000000" stroke="none" 
	d="
M20.026867,15.946899 
	C28.048037,10.073440 36.238411,9.167499 44.635857,13.909060 
	C52.609028,18.411057 56.521912,25.544825 55.826954,34.648926 
	C55.114742,43.978985 49.857876,50.313366 41.233742,53.786526 
	C31.640182,57.650093 20.948408,52.578293 16.306271,46.286003 
	C10.348880,38.210926 10.370480,27.251469 16.624172,19.399273 
	C17.551695,18.234665 18.692362,17.239809 20.026867,15.946899 
z"/>
</svg>